<?xml version="1.0" standalone="no"?>
<!DOCTYPE svg PUBLIC "-//W3C//DTD SVG 20010904//EN"
 "http://www.w3.org/TR/2001/REC-SVG-20010904/DTD/svg10.dtd">
<svg version="1.0" xmlns="http://www.w3.org/2000/svg"
 width="350.000000pt" height="350.000000pt" viewBox="0 0 350.000000 350.000000"
 preserveAspectRatio="xMidYMid meet">

<g transform="translate(0.000000,350.000000) scale(0.100000,-0.100000)"
fill="#000000" stroke="none">
<path d="M1880 2169 c0 -5 5 -7 10 -4 6 3 10 8 10 11 0 2 -4 4 -10 4 -5 0 -10
-5 -10 -11z"/>
<path d="M1827 2143 c-4 -3 -7 -16 -6 -27 0 -19 1 -19 10 3 10 24 8 36 -4 24z"/>
<path d="M1890 2050 c0 -5 5 -10 11 -10 5 0 7 5 4 10 -3 6 -8 10 -11 10 -2 0
-4 -4 -4 -10z"/>
<path d="M2132 1994 c-7 -8 -8 -14 -3 -14 10 0 25 19 20 25 -2 1 -10 -3 -17
-11z"/>
<path d="M1613 1939 c-66 -25 -128 -86 -161 -157 -35 -74 -37 -183 -5 -253 29
-64 85 -123 146 -153 68 -34 203 -37 270 -6 131 62 204 223 164 361 -20 66
-66 140 -87 137 -27 -4 -88 33 -94 56 -4 16 -16 25 -37 30 -59 11 -144 5 -196
-15z m190 0 c26 -7 37 -16 37 -29 0 -26 49 -62 78 -57 31 6 65 -40 87 -117 41
-139 -26 -287 -155 -345 -65 -30 -169 -28 -235 3 -63 30 -128 96 -156 160 -92
209 120 447 344 385z"/>
<path d="M2119 1923 c-13 -15 -12 -15 9 -4 23 12 28 21 13 21 -5 0 -15 -7 -22
-17z"/>
<path d="M706 1743 c6 -4 35 -71 64 -148 29 -77 54 -142 56 -144 2 -2 8 7 13
20 4 13 5 26 2 29 -4 3 -27 59 -52 125 -39 106 -48 120 -69 123 -14 2 -20 -1
-14 -5z"/>
<path d="M929 1738 c-1 -7 0 -73 1 -147 1 -102 -1 -136 -12 -142 -9 -6 -3 -9
17 -9 l30 0 0 155 c0 141 -2 155 -17 155 -10 0 -18 -6 -19 -12z"/>
<path d="M1038 1741 c10 -6 12 -42 10 -154 l-3 -147 30 1 c17 0 24 3 18 6 -10
3 -13 43 -13 148 0 105 3 145 13 148 6 3 -6 6 -28 6 -25 0 -35 -2 -27 -8z"/>
<path d="M2106 1743 c6 -4 35 -71 64 -148 29 -77 54 -142 56 -144 2 -2 8 7 13
20 4 13 5 26 2 29 -4 3 -27 59 -52 125 -39 106 -48 120 -69 123 -14 2 -20 -1
-14 -5z"/>
<path d="M2329 1738 c-1 -7 0 -73 1 -147 1 -102 -1 -136 -12 -142 -9 -6 -3 -9
17 -9 l30 0 0 155 c0 141 -2 155 -17 155 -10 0 -18 -6 -19 -12z"/>
<path d="M2658 1741 c10 -6 12 -42 10 -154 l-3 -147 30 1 c17 0 24 3 18 6 -9
3 -13 29 -13 78 0 73 0 74 28 78 l27 4 -27 2 c-27 1 -28 2 -28 65 0 63 1 65
28 69 15 2 2 5 -28 5 -32 1 -50 -2 -42 -7z"/>
<path d="M2881 1723 c0 -28 1 -28 11 -5 7 14 20 22 35 22 l24 0 -3 -150 c-3
-144 -2 -150 17 -150 19 0 20 6 17 150 l-3 150 24 0 c15 0 28 -8 35 -22 10
-23 11 -23 11 5 l1 27 -85 0 -85 0 1 -27z"/>
<path d="M1236 1728 c-13 -40 -14 -46 -6 -54 8 -9 40 -109 40 -125 0 -4 -21
-10 -47 -12 l-48 -3 51 -2 c49 -2 51 -3 62 -39 6 -20 9 -40 6 -45 -3 -4 10 -8
28 -8 21 0 28 3 20 9 -7 4 -33 73 -57 152 -26 88 -45 137 -49 127z"/>
<path d="M2507 1719 c-4 -13 4 -55 18 -98 14 -42 25 -76 25 -78 0 -1 -21 -4
-47 -6 l-48 -3 48 -2 c42 -2 49 -5 58 -29 6 -15 8 -35 6 -45 -4 -15 1 -18 26
-18 18 0 27 4 21 8 -6 4 -28 66 -49 137 -44 153 -50 166 -58 134z"/>
<path d="M2773 1729 c12 -7 17 -23 17 -54 0 -31 -5 -47 -17 -54 -11 -6 -13
-11 -5 -11 17 0 62 45 62 63 0 22 -39 67 -58 67 -15 -1 -15 -2 1 -11z"/>
<path d="M2776 1573 c7 -16 14 -46 14 -68 0 -43 13 -65 39 -65 12 0 12 3 3 12
-7 7 -12 31 -12 54 0 27 -7 51 -21 68 -27 34 -42 33 -23 -1z"/>
<path d="M708 1443 c6 -2 18 -2 25 0 6 3 1 5 -13 5 -14 0 -19 -2 -12 -5z"/>
<path d="M1148 1443 c6 -2 18 -2 25 0 6 3 1 5 -13 5 -14 0 -19 -2 -12 -5z"/>
<path d="M2108 1443 c6 -2 18 -2 25 0 6 3 1 5 -13 5 -14 0 -19 -2 -12 -5z"/>
<path d="M2418 1443 c6 -2 18 -2 25 0 6 3 1 5 -13 5 -14 0 -19 -2 -12 -5z"/>
</g>
</svg>
